<mxfile host="app.diagrams.net" modified="2024-02-03T16:57:34.624Z" agent="Mozilla/5.0 (Windows NT 10.0; Win64; x64; rv:122.0) Gecko/20100101 Firefox/122.0" etag="yM4J_OocsLOFlSLtwmMQ" version="22.1.21" type="github">
  <diagram name="Page-1" id="5d7acffa-a066-3a61-03fe-96351882024d">
    <mxGraphModel dx="2150" dy="1416" grid="1" gridSize="10" guides="1" tooltips="1" connect="1" arrows="1" fold="1" page="1" pageScale="1" pageWidth="1100" pageHeight="850" background="#ffffff" math="0" shadow="0">
      <root>
        <mxCell id="0" />
        <mxCell id="1" parent="0" />
        <mxCell id="3XVryducqYzDSN-yYhmy-24" style="edgeStyle=orthogonalEdgeStyle;rounded=0;orthogonalLoop=1;jettySize=auto;html=1;" parent="1" source="2debaab0fafb2da2-10" target="3XVryducqYzDSN-yYhmy-23" edge="1">
          <mxGeometry relative="1" as="geometry" />
        </mxCell>
        <mxCell id="2debaab0fafb2da2-10" value="Save input" style="html=1;rounded=0;shadow=0;comic=0;labelBackgroundColor=none;strokeWidth=2;fontFamily=Verdana;fontSize=12;align=center;shape=mxgraph.ios7ui.horLines;" parent="1" vertex="1">
          <mxGeometry x="-110" y="110" width="135" height="50" as="geometry" />
        </mxCell>
        <mxCell id="21ea969265ad0168-6" value="Check if first word is a valid command" style="swimlane;html=1;fontStyle=0;childLayout=stackLayout;horizontal=1;startSize=26;fillColor=#e0e0e0;horizontalStack=0;resizeParent=1;resizeLast=0;collapsible=1;marginBottom=0;swimlaneFillColor=#ffffff;align=center;rounded=1;shadow=0;comic=0;labelBackgroundColor=none;strokeWidth=1;fontFamily=Verdana;fontSize=12" parent="1" vertex="1">
          <mxGeometry x="92.5" y="40" width="280" height="110" as="geometry" />
        </mxCell>
        <mxCell id="3XVryducqYzDSN-yYhmy-17" style="edgeStyle=orthogonalEdgeStyle;rounded=0;orthogonalLoop=1;jettySize=auto;html=1;" parent="21ea969265ad0168-6" source="21ea969265ad0168-7" edge="1">
          <mxGeometry relative="1" as="geometry">
            <mxPoint x="347.5" y="39" as="targetPoint" />
          </mxGeometry>
        </mxCell>
        <mxCell id="21ea969265ad0168-7" value="&lt;div align=&quot;right&quot;&gt;False&lt;/div&gt;" style="text;html=1;strokeColor=none;fillColor=none;spacingLeft=4;spacingRight=4;whiteSpace=wrap;overflow=hidden;rotatable=0;points=[[0,0.5],[1,0.5]];portConstraint=eastwest;align=right;" parent="21ea969265ad0168-6" vertex="1">
          <mxGeometry y="26" width="280" height="26" as="geometry" />
        </mxCell>
        <mxCell id="21ea969265ad0168-9" value="&lt;div align=&quot;center&quot;&gt;True&lt;/div&gt;" style="text;html=1;strokeColor=none;fillColor=none;spacingLeft=4;spacingRight=4;whiteSpace=wrap;overflow=hidden;rotatable=0;points=[[0,0.5],[1,0.5]];portConstraint=eastwest;align=center;" parent="21ea969265ad0168-6" vertex="1">
          <mxGeometry y="52" width="280" height="26" as="geometry" />
        </mxCell>
        <mxCell id="21ea969265ad0168-10" value="Function" style="swimlane;html=1;fontStyle=0;childLayout=stackLayout;horizontal=1;startSize=26;fillColor=#e0e0e0;horizontalStack=0;resizeParent=1;resizeLast=0;collapsible=1;marginBottom=0;swimlaneFillColor=#ffffff;align=center;rounded=1;shadow=0;comic=0;labelBackgroundColor=none;strokeWidth=1;fontFamily=Verdana;fontSize=12" parent="1" vertex="1">
          <mxGeometry x="192.5" y="1347" width="160" height="156" as="geometry" />
        </mxCell>
        <mxCell id="21ea969265ad0168-12" value="Row 2" style="text;html=1;strokeColor=none;fillColor=none;spacingLeft=4;spacingRight=4;whiteSpace=wrap;overflow=hidden;rotatable=0;points=[[0,0.5],[1,0.5]];portConstraint=eastwest;" parent="21ea969265ad0168-10" vertex="1">
          <mxGeometry y="26" width="160" height="26" as="geometry" />
        </mxCell>
        <mxCell id="21ea969265ad0168-8" value="Row 2" style="text;html=1;strokeColor=none;fillColor=none;spacingLeft=4;spacingRight=4;whiteSpace=wrap;overflow=hidden;rotatable=0;points=[[0,0.5],[1,0.5]];portConstraint=eastwest;" parent="21ea969265ad0168-10" vertex="1">
          <mxGeometry y="52" width="160" height="26" as="geometry" />
        </mxCell>
        <mxCell id="21ea969265ad0168-52" value="Row 3" style="text;html=1;strokeColor=none;fillColor=none;spacingLeft=4;spacingRight=4;whiteSpace=wrap;overflow=hidden;rotatable=0;points=[[0,0.5],[1,0.5]];portConstraint=eastwest;" parent="21ea969265ad0168-10" vertex="1">
          <mxGeometry y="78" width="160" height="26" as="geometry" />
        </mxCell>
        <mxCell id="21ea969265ad0168-13" value="Row 4" style="text;html=1;strokeColor=none;fillColor=none;spacingLeft=4;spacingRight=4;whiteSpace=wrap;overflow=hidden;rotatable=0;points=[[0,0.5],[1,0.5]];portConstraint=eastwest;" parent="21ea969265ad0168-10" vertex="1">
          <mxGeometry y="104" width="160" height="26" as="geometry" />
        </mxCell>
        <mxCell id="3XVryducqYzDSN-yYhmy-29" style="edgeStyle=orthogonalEdgeStyle;rounded=0;orthogonalLoop=1;jettySize=auto;html=1;exitX=0.5;exitY=1;exitDx=0;exitDy=0;" parent="1" source="21ea969265ad0168-14" edge="1">
          <mxGeometry relative="1" as="geometry">
            <mxPoint x="233" y="340" as="targetPoint" />
            <Array as="points">
              <mxPoint x="233" y="320" />
              <mxPoint x="233" y="320" />
            </Array>
          </mxGeometry>
        </mxCell>
        <mxCell id="21ea969265ad0168-14" value="Check Quotes, DQ and |" style="swimlane;html=1;fontStyle=0;childLayout=stackLayout;horizontal=1;startSize=26;fillColor=#e0e0e0;horizontalStack=0;resizeParent=1;resizeLast=0;collapsible=1;marginBottom=0;swimlaneFillColor=#ffffff;align=center;rounded=1;shadow=0;comic=0;labelBackgroundColor=none;strokeWidth=1;fontFamily=Verdana;fontSize=12" parent="1" vertex="1">
          <mxGeometry x="37.5" y="190" width="390" height="110" as="geometry" />
        </mxCell>
        <mxCell id="21ea969265ad0168-15" value="If quotes aren&#39;t closed or there isn&#39;t any valid command after pipe" style="text;html=1;strokeColor=none;fillColor=none;spacingLeft=4;spacingRight=4;whiteSpace=wrap;overflow=hidden;rotatable=0;points=[[0,0.5],[1,0.5]];portConstraint=eastwest;" parent="21ea969265ad0168-14" vertex="1">
          <mxGeometry y="26" width="390" height="26" as="geometry" />
        </mxCell>
        <mxCell id="21ea969265ad0168-17" value="Else" style="text;html=1;strokeColor=none;fillColor=none;spacingLeft=4;spacingRight=4;whiteSpace=wrap;overflow=hidden;rotatable=0;points=[[0,0.5],[1,0.5]];portConstraint=eastwest;align=center;" parent="21ea969265ad0168-14" vertex="1">
          <mxGeometry y="52" width="390" height="26" as="geometry" />
        </mxCell>
        <mxCell id="aaiDAb_gaF5hAQlq2L2B-3" style="edgeStyle=orthogonalEdgeStyle;rounded=0;orthogonalLoop=1;jettySize=auto;html=1;exitX=0.5;exitY=1;exitDx=0;exitDy=0;entryX=0.5;entryY=0;entryDx=0;entryDy=0;" edge="1" parent="1" source="21ea969265ad0168-18" target="3XVryducqYzDSN-yYhmy-39">
          <mxGeometry relative="1" as="geometry" />
        </mxCell>
        <mxCell id="21ea969265ad0168-18" value="Split attending to &amp;lt; &amp;gt; and |" style="swimlane;html=1;fontStyle=0;childLayout=stackLayout;horizontal=1;startSize=26;fillColor=#e0e0e0;horizontalStack=0;resizeParent=1;resizeLast=0;collapsible=1;marginBottom=0;swimlaneFillColor=#ffffff;align=center;rounded=1;shadow=0;comic=0;labelBackgroundColor=none;strokeWidth=1;fontFamily=Verdana;fontSize=12" parent="1" vertex="1">
          <mxGeometry x="57.5" y="520" width="350" height="140" as="geometry" />
        </mxCell>
        <mxCell id="21ea969265ad0168-19" value="Row 1" style="text;html=1;strokeColor=none;fillColor=none;spacingLeft=4;spacingRight=4;whiteSpace=wrap;overflow=hidden;rotatable=0;points=[[0,0.5],[1,0.5]];portConstraint=eastwest;" parent="21ea969265ad0168-18" vertex="1">
          <mxGeometry y="26" width="350" height="26" as="geometry" />
        </mxCell>
        <mxCell id="21ea969265ad0168-20" value="Row 2" style="text;html=1;strokeColor=none;fillColor=none;spacingLeft=4;spacingRight=4;whiteSpace=wrap;overflow=hidden;rotatable=0;points=[[0,0.5],[1,0.5]];portConstraint=eastwest;" parent="21ea969265ad0168-18" vertex="1">
          <mxGeometry y="52" width="350" height="26" as="geometry" />
        </mxCell>
        <mxCell id="21ea969265ad0168-51" value="Row 3" style="text;html=1;strokeColor=none;fillColor=none;spacingLeft=4;spacingRight=4;whiteSpace=wrap;overflow=hidden;rotatable=0;points=[[0,0.5],[1,0.5]];portConstraint=eastwest;" parent="21ea969265ad0168-18" vertex="1">
          <mxGeometry y="78" width="350" height="26" as="geometry" />
        </mxCell>
        <mxCell id="21ea969265ad0168-21" value="Row 4" style="text;html=1;strokeColor=none;fillColor=none;spacingLeft=4;spacingRight=4;whiteSpace=wrap;overflow=hidden;rotatable=0;points=[[0,0.5],[1,0.5]];portConstraint=eastwest;" parent="21ea969265ad0168-18" vertex="1">
          <mxGeometry y="104" width="350" height="26" as="geometry" />
        </mxCell>
        <mxCell id="21ea969265ad0168-22" value="Function" style="swimlane;html=1;fontStyle=0;childLayout=stackLayout;horizontal=1;startSize=26;fillColor=#e0e0e0;horizontalStack=0;resizeParent=1;resizeLast=0;collapsible=1;marginBottom=0;swimlaneFillColor=#ffffff;align=center;rounded=1;shadow=0;comic=0;labelBackgroundColor=none;strokeWidth=1;fontFamily=Verdana;fontSize=12" parent="1" vertex="1">
          <mxGeometry x="460" y="1280" width="160" height="84" as="geometry" />
        </mxCell>
        <mxCell id="21ea969265ad0168-23" value="Row 1" style="text;html=1;strokeColor=none;fillColor=none;spacingLeft=4;spacingRight=4;whiteSpace=wrap;overflow=hidden;rotatable=0;points=[[0,0.5],[1,0.5]];portConstraint=eastwest;" parent="21ea969265ad0168-22" vertex="1">
          <mxGeometry y="26" width="160" height="26" as="geometry" />
        </mxCell>
        <mxCell id="21ea969265ad0168-24" value="Row 2" style="text;html=1;strokeColor=none;fillColor=none;spacingLeft=4;spacingRight=4;whiteSpace=wrap;overflow=hidden;rotatable=0;points=[[0,0.5],[1,0.5]];portConstraint=eastwest;" parent="21ea969265ad0168-22" vertex="1">
          <mxGeometry y="52" width="160" height="26" as="geometry" />
        </mxCell>
        <mxCell id="21ea969265ad0168-26" value="Add info to structs" style="swimlane;html=1;fontStyle=0;childLayout=stackLayout;horizontal=1;startSize=26;fillColor=#e0e0e0;horizontalStack=0;resizeParent=1;resizeLast=0;collapsible=1;marginBottom=0;swimlaneFillColor=#ffffff;align=center;rounded=1;shadow=0;comic=0;labelBackgroundColor=none;strokeWidth=1;fontFamily=Verdana;fontSize=12" parent="1" vertex="1">
          <mxGeometry y="890" width="500" height="150" as="geometry" />
        </mxCell>
        <mxCell id="21ea969265ad0168-27" value="Check Redirections and retrieve fd to put info in struct." style="text;html=1;strokeColor=none;fillColor=none;spacingLeft=4;spacingRight=4;whiteSpace=wrap;overflow=hidden;rotatable=0;points=[[0,0.5],[1,0.5]];portConstraint=eastwest;" parent="21ea969265ad0168-26" vertex="1">
          <mxGeometry y="26" width="500" height="26" as="geometry" />
        </mxCell>
        <mxCell id="21ea969265ad0168-28" value="Check that fd opened is valid." style="text;html=1;strokeColor=none;fillColor=none;spacingLeft=4;spacingRight=4;whiteSpace=wrap;overflow=hidden;rotatable=0;points=[[0,0.5],[1,0.5]];portConstraint=eastwest;" parent="21ea969265ad0168-26" vertex="1">
          <mxGeometry y="52" width="500" height="28" as="geometry" />
        </mxCell>
        <mxCell id="21ea969265ad0168-29" value="If Pipe is found, add new node to list of commands." style="text;html=1;strokeColor=none;fillColor=none;spacingLeft=4;spacingRight=4;whiteSpace=wrap;overflow=hidden;rotatable=0;points=[[0,0.5],[1,0.5]];portConstraint=eastwest;" parent="21ea969265ad0168-26" vertex="1">
          <mxGeometry y="80" width="500" height="30" as="geometry" />
        </mxCell>
        <mxCell id="21ea969265ad0168-11" value="In other case add word to full_cmd" style="text;html=1;strokeColor=none;fillColor=none;spacingLeft=4;spacingRight=4;whiteSpace=wrap;overflow=hidden;rotatable=0;points=[[0,0.5],[1,0.5]];portConstraint=eastwest;" parent="21ea969265ad0168-26" vertex="1">
          <mxGeometry y="110" width="500" height="26" as="geometry" />
        </mxCell>
        <mxCell id="21ea969265ad0168-30" value="Object" style="html=1;rounded=0;shadow=0;comic=0;labelBackgroundColor=none;strokeWidth=2;fontFamily=Verdana;fontSize=12;align=center;shape=mxgraph.ios7ui.horLines;" parent="1" vertex="1">
          <mxGeometry x="-50" y="1400" width="135" height="50" as="geometry" />
        </mxCell>
        <mxCell id="21ea969265ad0168-36" style="edgeStyle=orthogonalEdgeStyle;html=1;labelBackgroundColor=none;startFill=0;startSize=8;endFill=1;endSize=8;fontFamily=Verdana;fontSize=12;" parent="1" source="21ea969265ad0168-6" target="21ea969265ad0168-14" edge="1">
          <mxGeometry relative="1" as="geometry" />
        </mxCell>
        <mxCell id="3XVryducqYzDSN-yYhmy-1" value="Quotes and Double Q" style="swimlane;" parent="1" vertex="1">
          <mxGeometry x="60" y="-640" width="260" height="195" as="geometry">
            <mxRectangle x="60" y="-520" width="160" height="30" as="alternateBounds" />
          </mxGeometry>
        </mxCell>
        <mxCell id="3XVryducqYzDSN-yYhmy-7" value="&lt;ul style=&quot;&quot;&gt;&lt;li&gt;&lt;div align=&quot;left&quot;&gt;Check closures.&lt;/div&gt;&lt;/li&gt;&lt;li&gt;If not closed, continue waiting input.&lt;br&gt;&lt;/li&gt;&lt;/ul&gt;&lt;div align=&quot;left&quot;&gt;&lt;ul&gt;&lt;li&gt;¿Avoid $ means ignor or print?&lt;/li&gt;&lt;/ul&gt;&lt;/div&gt;" style="text;html=1;align=center;verticalAlign=middle;resizable=0;points=[];autosize=1;strokeColor=none;fillColor=none;" parent="3XVryducqYzDSN-yYhmy-1" vertex="1">
          <mxGeometry x="-20" y="30" width="250" height="90" as="geometry" />
        </mxCell>
        <mxCell id="3XVryducqYzDSN-yYhmy-2" value="Redirects" style="swimlane;" parent="1" vertex="1">
          <mxGeometry x="360" y="-640" width="200" height="200" as="geometry" />
        </mxCell>
        <mxCell id="3XVryducqYzDSN-yYhmy-10" value="&lt;ul&gt;&lt;li&gt;It must to be a command before.&lt;/li&gt;&lt;/ul&gt;&lt;div&gt;&amp;lt;&lt;/div&gt;&lt;div&gt;&amp;gt;&lt;/div&gt;&lt;div&gt;&amp;lt;&amp;lt;&lt;/div&gt;&lt;div&gt;&amp;gt;&amp;gt;&lt;br&gt;&lt;/div&gt;" style="text;html=1;align=center;verticalAlign=middle;resizable=0;points=[];autosize=1;strokeColor=none;fillColor=none;" parent="3XVryducqYzDSN-yYhmy-2" vertex="1">
          <mxGeometry x="-30" y="45" width="230" height="110" as="geometry" />
        </mxCell>
        <mxCell id="3XVryducqYzDSN-yYhmy-3" value="Built-ins" style="swimlane;" parent="1" vertex="1">
          <mxGeometry x="490" y="-410" width="200" height="220" as="geometry" />
        </mxCell>
        <mxCell id="3XVryducqYzDSN-yYhmy-27" value="&lt;div align=&quot;left&quot;&gt;&lt;ul&gt;&lt;li&gt;echo&lt;/li&gt;&lt;li&gt;cd&lt;/li&gt;&lt;li&gt;pwd&lt;/li&gt;&lt;li&gt;&lt;div&gt;export&lt;/div&gt;&lt;/li&gt;&lt;li&gt;unset&lt;/li&gt;&lt;li&gt;env&lt;/li&gt;&lt;li&gt;exit&lt;br&gt;&lt;/li&gt;&lt;/ul&gt;&lt;/div&gt;" style="text;html=1;align=left;verticalAlign=middle;resizable=0;points=[];autosize=1;strokeColor=none;fillColor=none;" parent="3XVryducqYzDSN-yYhmy-3" vertex="1">
          <mxGeometry x="40" y="30" width="100" height="140" as="geometry" />
        </mxCell>
        <mxCell id="3XVryducqYzDSN-yYhmy-4" value="Environment Variables ($)" style="swimlane;" parent="1" vertex="1">
          <mxGeometry x="172.5" y="-410" width="200" height="100" as="geometry" />
        </mxCell>
        <mxCell id="3XVryducqYzDSN-yYhmy-28" value="&lt;div&gt;$*&lt;/div&gt;&lt;div&gt;&lt;br&gt;&lt;/div&gt;&lt;div&gt;$?&lt;br&gt;&lt;/div&gt;" style="text;html=1;align=center;verticalAlign=middle;resizable=0;points=[];autosize=1;strokeColor=none;fillColor=none;" parent="3XVryducqYzDSN-yYhmy-4" vertex="1">
          <mxGeometry x="70" y="25" width="40" height="60" as="geometry" />
        </mxCell>
        <mxCell id="3XVryducqYzDSN-yYhmy-5" value="Sygnals" style="swimlane;" parent="1" vertex="1">
          <mxGeometry x="172.5" y="-290" width="200" height="110" as="geometry" />
        </mxCell>
        <mxCell id="3XVryducqYzDSN-yYhmy-26" value="&lt;ul&gt;&lt;li&gt;ctrl-C&lt;/li&gt;&lt;li&gt;ctrl-D&lt;/li&gt;&lt;li&gt;ctrl-\&lt;/li&gt;&lt;/ul&gt;" style="text;html=1;align=center;verticalAlign=middle;resizable=0;points=[];autosize=1;strokeColor=none;fillColor=none;" parent="3XVryducqYzDSN-yYhmy-5" vertex="1">
          <mxGeometry x="47.5" y="30" width="90" height="80" as="geometry" />
        </mxCell>
        <mxCell id="3XVryducqYzDSN-yYhmy-6" value="Pipes" style="swimlane;" parent="1" vertex="1">
          <mxGeometry x="640" y="-640" width="290" height="200" as="geometry" />
        </mxCell>
        <mxCell id="3XVryducqYzDSN-yYhmy-12" value="&lt;ul&gt;&lt;li&gt;It must to be a command before first pipe&lt;br&gt;&lt;/li&gt;&lt;li&gt;&lt;div align=&quot;left&quot;&gt;It must to be a comman after each pipe.&lt;br&gt;&lt;/div&gt;&lt;div align=&quot;left&quot;&gt;&lt;br&gt;&lt;/div&gt;&lt;/li&gt;&lt;/ul&gt;" style="text;html=1;align=center;verticalAlign=middle;resizable=0;points=[];autosize=1;strokeColor=none;fillColor=none;" parent="3XVryducqYzDSN-yYhmy-6" vertex="1">
          <mxGeometry y="25" width="280" height="80" as="geometry" />
        </mxCell>
        <mxCell id="3XVryducqYzDSN-yYhmy-14" value="Lexer" style="rounded=0;whiteSpace=wrap;html=1;" parent="1" vertex="1">
          <mxGeometry x="172.5" y="-120" width="120" height="60" as="geometry" />
        </mxCell>
        <mxCell id="3XVryducqYzDSN-yYhmy-16" style="edgeStyle=orthogonalEdgeStyle;rounded=0;orthogonalLoop=1;jettySize=auto;html=1;" parent="1" source="3XVryducqYzDSN-yYhmy-15" edge="1">
          <mxGeometry relative="1" as="geometry">
            <mxPoint x="232.5" y="40" as="targetPoint" />
          </mxGeometry>
        </mxCell>
        <mxCell id="3XVryducqYzDSN-yYhmy-15" value="Read input from stdin" style="rounded=1;whiteSpace=wrap;html=1;" parent="1" vertex="1">
          <mxGeometry x="172.5" y="-30" width="120" height="40" as="geometry" />
        </mxCell>
        <mxCell id="3XVryducqYzDSN-yYhmy-18" value="Error: command not found" style="rounded=1;whiteSpace=wrap;html=1;" parent="1" vertex="1">
          <mxGeometry x="440" y="60" width="250" height="40" as="geometry" />
        </mxCell>
        <mxCell id="3XVryducqYzDSN-yYhmy-19" style="edgeStyle=orthogonalEdgeStyle;rounded=0;orthogonalLoop=1;jettySize=auto;html=1;" parent="1" source="21ea969265ad0168-15" edge="1">
          <mxGeometry relative="1" as="geometry">
            <mxPoint x="-40" y="160" as="targetPoint" />
          </mxGeometry>
        </mxCell>
        <mxCell id="3XVryducqYzDSN-yYhmy-25" style="edgeStyle=orthogonalEdgeStyle;rounded=0;orthogonalLoop=1;jettySize=auto;html=1;" parent="1" source="3XVryducqYzDSN-yYhmy-23" edge="1">
          <mxGeometry relative="1" as="geometry">
            <mxPoint x="170" y="-10" as="targetPoint" />
          </mxGeometry>
        </mxCell>
        <mxCell id="3XVryducqYzDSN-yYhmy-23" value="Wait input from stdin" style="rounded=1;whiteSpace=wrap;html=1;" parent="1" vertex="1">
          <mxGeometry x="-102.5" y="-30" width="120" height="40" as="geometry" />
        </mxCell>
        <mxCell id="aaiDAb_gaF5hAQlq2L2B-2" style="edgeStyle=orthogonalEdgeStyle;rounded=0;orthogonalLoop=1;jettySize=auto;html=1;exitX=0.5;exitY=1;exitDx=0;exitDy=0;entryX=0.5;entryY=0;entryDx=0;entryDy=0;" edge="1" parent="1" source="3XVryducqYzDSN-yYhmy-30" target="21ea969265ad0168-18">
          <mxGeometry relative="1" as="geometry" />
        </mxCell>
        <mxCell id="3XVryducqYzDSN-yYhmy-30" value="&lt;div&gt;Split attending to DQ, Q and spaces&lt;br&gt;&lt;/div&gt;" style="swimlane;html=1;fontStyle=0;childLayout=stackLayout;horizontal=1;startSize=26;fillColor=#e0e0e0;horizontalStack=0;resizeParent=1;resizeLast=0;collapsible=1;marginBottom=0;swimlaneFillColor=#ffffff;align=center;rounded=1;shadow=0;comic=0;labelBackgroundColor=none;strokeWidth=1;fontFamily=Verdana;fontSize=12" parent="1" vertex="1">
          <mxGeometry x="57.5" y="340" width="350" height="140" as="geometry" />
        </mxCell>
        <mxCell id="3XVryducqYzDSN-yYhmy-31" value="Row 1" style="text;html=1;strokeColor=none;fillColor=none;spacingLeft=4;spacingRight=4;whiteSpace=wrap;overflow=hidden;rotatable=0;points=[[0,0.5],[1,0.5]];portConstraint=eastwest;" parent="3XVryducqYzDSN-yYhmy-30" vertex="1">
          <mxGeometry y="26" width="350" height="26" as="geometry" />
        </mxCell>
        <mxCell id="3XVryducqYzDSN-yYhmy-32" value="Row 2" style="text;html=1;strokeColor=none;fillColor=none;spacingLeft=4;spacingRight=4;whiteSpace=wrap;overflow=hidden;rotatable=0;points=[[0,0.5],[1,0.5]];portConstraint=eastwest;" parent="3XVryducqYzDSN-yYhmy-30" vertex="1">
          <mxGeometry y="52" width="350" height="26" as="geometry" />
        </mxCell>
        <mxCell id="3XVryducqYzDSN-yYhmy-33" value="Row 3" style="text;html=1;strokeColor=none;fillColor=none;spacingLeft=4;spacingRight=4;whiteSpace=wrap;overflow=hidden;rotatable=0;points=[[0,0.5],[1,0.5]];portConstraint=eastwest;" parent="3XVryducqYzDSN-yYhmy-30" vertex="1">
          <mxGeometry y="78" width="350" height="26" as="geometry" />
        </mxCell>
        <mxCell id="3XVryducqYzDSN-yYhmy-34" value="Row 4" style="text;html=1;strokeColor=none;fillColor=none;spacingLeft=4;spacingRight=4;whiteSpace=wrap;overflow=hidden;rotatable=0;points=[[0,0.5],[1,0.5]];portConstraint=eastwest;" parent="3XVryducqYzDSN-yYhmy-30" vertex="1">
          <mxGeometry y="104" width="350" height="26" as="geometry" />
        </mxCell>
        <mxCell id="3XVryducqYzDSN-yYhmy-39" value="Expander (Retrieve $ values)" style="rounded=1;whiteSpace=wrap;html=1;" parent="1" vertex="1">
          <mxGeometry x="127.5" y="700" width="210" height="40" as="geometry" />
        </mxCell>
        <mxCell id="3XVryducqYzDSN-yYhmy-43" value="Parser" style="rounded=0;whiteSpace=wrap;html=1;" parent="1" vertex="1">
          <mxGeometry x="172.5" y="790" width="120" height="60" as="geometry" />
        </mxCell>
        <mxCell id="3XVryducqYzDSN-yYhmy-44" value="&lt;div&gt;Executor&lt;/div&gt;" style="rounded=0;whiteSpace=wrap;html=1;" parent="1" vertex="1">
          <mxGeometry x="172.5" y="1100" width="120" height="60" as="geometry" />
        </mxCell>
      </root>
    </mxGraphModel>
  </diagram>
</mxfile>
